<svg width="48" height="49" viewBox="0 0 48 49" fill="none" xmlns="http://www.w3.org/2000/svg">
<circle cx="24" cy="24.2812" r="23" stroke="white" stroke-width="2"/>
<path d="M32.6033 30.2797C32.6033 31.8664 32.2067 33.2264 31.4133 34.3597C30.5067 35.6744 29.2713 36.3317 27.7073 36.3317C26.3927 36.3317 24.432 35.4817 21.8253 33.7817C20.7147 35.5044 19.434 36.3657 17.9833 36.3657C17.9833 36.3657 17.9153 36.3657 17.7793 36.3657C17.666 36.3657 17.5073 36.343 17.3033 36.2977C17.0993 36.275 16.8727 36.207 16.6233 36.0937C16.374 35.9804 16.1133 35.8104 15.8413 35.5837C15.252 35.0397 14.9573 34.3484 14.9573 33.5097C14.9573 32.5577 15.2747 31.8324 15.9093 31.3337C16.4533 30.8123 17.2467 30.5404 18.2893 30.5177C18.4253 30.5177 18.5613 30.529 18.6973 30.5517C18.8333 30.5517 18.9807 30.563 19.1393 30.5857C19.4567 30.631 19.7853 30.7217 20.1253 30.8577C20.488 30.9937 20.862 31.1524 21.2473 31.3337C21.338 30.9937 21.3833 30.5177 21.3833 29.9057C21.3833 28.2057 21.032 26.483 20.3293 24.7377H16.3173V23.2757H19.8193C19.0033 21.145 18.5953 19.3203 18.5953 17.8017C18.5953 15.943 19.1733 14.4017 20.3293 13.1777C21.508 11.9537 23.0153 11.3417 24.8513 11.3417C26.574 11.3417 28.036 11.8743 29.2373 12.9397C30.3707 13.9597 30.9373 15.1157 30.9373 16.4077V16.6457C30.9373 17.099 30.79 17.4843 30.4953 17.8017C30.2233 18.119 29.8493 18.2777 29.3733 18.2777C28.8747 18.2777 28.5007 18.1303 28.2513 17.8357C28.0247 17.5183 27.9113 17.099 27.9113 16.5777C27.9113 16.3963 27.934 16.147 27.9793 15.8297C28.0473 15.5123 28.0813 15.2743 28.0813 15.1157C28.0813 14.2997 27.7753 13.6537 27.1633 13.1777C26.574 12.7243 25.8487 12.4977 24.9873 12.4977C23.7633 12.4977 22.7433 12.951 21.9273 13.8577C21.1793 14.719 20.8053 15.7164 20.8053 16.8497C20.8053 18.1417 21.1113 19.785 21.7233 21.7797C21.814 22.029 21.8933 22.2783 21.9613 22.5277C22.052 22.777 22.154 23.0263 22.2673 23.2757H28.6933V24.7377H22.7093C22.868 25.327 22.9927 25.9277 23.0833 26.5397C23.174 27.129 23.2307 27.7184 23.2533 28.3077V28.5797C23.2533 29.237 23.1967 29.8604 23.0833 30.4497C22.97 31.039 22.8113 31.5944 22.6073 32.1157C24.9873 33.5437 26.8007 34.2577 28.0473 34.2577C29.3393 34.2577 30.314 33.759 30.9713 32.7617C31.3793 32.0817 31.6513 31.1297 31.7873 29.9057H32.6033V30.2797ZM20.7373 32.9997C20.556 32.909 20.3973 32.8297 20.2613 32.7617C20.1253 32.6937 20.0007 32.637 19.8873 32.5917C19.0487 32.093 18.346 31.8437 17.7793 31.8437C17.3033 31.8437 16.9067 32.0137 16.5893 32.3537C16.272 32.671 16.1133 33.0564 16.1133 33.5097C16.1133 34.0084 16.2947 34.405 16.6573 34.6997C17.02 34.9944 17.4847 35.1417 18.0513 35.1417C19.0487 35.1417 19.944 34.4277 20.7373 32.9997Z" fill="white"/>
</svg>
