<?xml version="1.0" encoding="UTF-8"?>
<svg version="1.1" xmlns="http://www.w3.org/2000/svg" width="512" height="512">
<path d="M0 0 C1.91301974 -0.00734859 3.82603507 -0.01593711 5.73904419 -0.02566528 C10.91268604 -0.04780586 16.08616826 -0.05081574 21.25985098 -0.04891777 C25.58867771 -0.04879773 29.91747103 -0.05737534 34.24628842 -0.06569529 C44.46369431 -0.08490224 54.68101851 -0.08782292 64.8984375 -0.08105469 C75.41746145 -0.07441458 85.9361347 -0.09728343 96.45508754 -0.13436842 C105.50680232 -0.16511545 114.55840456 -0.17642006 123.61017048 -0.1725316 C129.00738104 -0.17046943 134.40431853 -0.17586129 139.80147934 -0.20042419 C144.87915698 -0.22277174 149.95626619 -0.22074701 155.03394699 -0.20049667 C156.88981065 -0.19710087 158.74571319 -0.20211357 160.60152435 -0.21648026 C175.30902123 -0.32241903 186.98281344 1.8694765 198.06298828 12.41992188 C208.27831602 23.1949936 209.79884515 35.68715732 209.68444824 49.84767151 C209.68878346 51.59498565 209.69530507 53.34229548 209.70380831 55.0895943 C209.72072761 59.86429636 209.70666914 64.63847047 209.68729353 69.41314447 C209.67181979 74.57272138 209.68528043 79.73223555 209.69503784 84.89181519 C209.70954288 94.98855998 209.6973522 105.08510325 209.6759246 115.18182892 C209.65187885 126.94524821 209.65363116 138.70862167 209.65623051 150.47206008 C209.65991839 171.46343014 209.63911451 192.45470543 209.60498047 213.44604492 C209.57188641 233.80544428 209.55772319 254.1647442 209.56396484 274.52416992 C209.57073202 296.70681334 209.56825961 318.88941514 209.54860544 341.07205242 C209.54704621 342.83227242 209.54704621 342.83227242 209.54545549 344.62805242 C209.54336463 346.98477335 209.54125365 349.34149426 209.53912231 351.69821515 C209.53223301 359.89407996 209.53155636 368.08993193 209.53300476 376.28579903 C209.53444588 386.27569755 209.52472763 396.2655151 209.5010584 406.25538678 C209.48921551 411.35041153 209.48206194 416.44532355 209.48789597 421.5403614 C209.49308254 426.20793439 209.48432753 430.8752696 209.46462137 435.54280197 C209.45989709 437.22768185 209.46016172 438.91258501 209.46603173 440.59746129 C209.49439097 449.61116308 209.09291874 457.81855092 206.06298828 466.41992188 C205.64367767 467.69672069 205.64367767 467.69672069 205.21589613 468.99931341 C199.60559825 485.55531976 186.26422897 498.46711125 171.06298828 506.41992188 C161.60871716 510.67974975 152.90841278 512.56922076 142.6411438 512.5670929 C141.68782036 512.57076958 140.73449692 512.57444627 139.75228488 512.57823437 C136.55522873 512.58925434 133.3582051 512.59311225 130.16113281 512.59692383 C127.86949053 512.60318991 125.57784926 512.60983684 123.28620911 512.61683655 C115.75608018 512.63786782 108.22595108 512.64824032 100.69580078 512.65820312 C98.10050318 512.66225149 95.50520568 512.66636843 92.90990829 512.67055321 C82.10958433 512.68742266 71.30926329 512.70205553 60.5089283 512.70930195 C57.70826338 512.71121163 54.90759848 512.71313199 52.10693359 512.71508789 C51.41090129 512.71557163 50.71486898 512.71605537 49.99774478 512.71655377 C38.74022272 512.72484156 27.48280735 512.7501576 16.2253318 512.78266857 C4.64811999 512.81582815 -6.92903228 512.83342674 -18.50629151 512.83694619 C-24.99854735 512.83929159 -31.49063462 512.84818536 -37.98284531 512.87340736 C-44.09782003 512.89677942 -50.21251628 512.90088454 -56.32752419 512.89064598 C-58.56269192 512.89015268 -60.79787379 512.8964119 -63.03299904 512.91020203 C-85.86279838 513.04308731 -104.90694389 509.06117537 -121.93701172 492.41992188 C-140.37377036 471.39094915 -141.54690802 449.36406797 -141.41593325 422.76629865 C-141.40057247 418.74254463 -141.40861017 414.71882395 -141.41362 410.6950531 C-141.4198142 402.83543068 -141.40493492 394.97598585 -141.38289437 387.11639749 C-141.35809947 377.95578725 -141.35528545 368.79520861 -141.35349061 359.63456977 C-141.34962288 343.29174169 -141.32721231 326.94899319 -141.29370117 310.60620117 C-141.26123002 294.75756497 -141.24001085 278.90897077 -141.23217773 263.06030273 C-141.23169224 262.08275559 -141.23120675 261.10520845 -141.23070655 260.09803867 C-141.2287777 256.16837501 -141.22686557 252.23871135 -141.22499045 248.30904767 C-141.21745764 233.18412183 -141.20183442 218.05920285 -141.18449384 202.93428544 C-141.17926166 198.36931557 -141.17432836 193.80434583 -141.17013192 189.23937488 C-141.16120904 179.64830045 -141.1494124 170.05724606 -141.12856589 160.46618926 C-141.11998002 156.50176251 -141.11288748 152.53734953 -141.1100502 148.57291412 C-141.10737632 144.94325473 -141.10006766 141.3136351 -141.08905973 137.68399168 C-141.08435139 135.75134144 -141.08445698 133.81868132 -141.08474141 131.88602537 C-141.04845437 122.4957466 -141.04845437 122.4957466 -140.32016277 118.25544834 C-139.60560826 115.29955579 -139.60560826 115.29955579 -141.65942383 112.78930664 C-142.50255127 111.98807373 -143.34567871 111.18684082 -144.21435547 110.36132812 C-145.11992187 109.48154297 -146.02548828 108.60175781 -146.95849609 107.6953125 C-147.92078125 106.80005859 -148.88306641 105.90480469 -149.87451172 104.98242188 C-150.84441916 104.05266416 -151.81254129 103.12104022 -152.77880859 102.1875 C-155.1479451 99.91265748 -157.53366631 97.65850267 -159.93701172 95.41992188 C-162.79674039 96.72478741 -164.303475 97.77786275 -166.62451172 100.04492188 C-169.87435448 102.82460972 -172.6205316 103.08698569 -176.81591797 102.85351562 C-179.98111585 102.20648622 -181.7544566 100.73888669 -183.93701172 98.41992188 C-185.73666989 94.82060553 -185.5992994 91.33420149 -184.93701172 87.41992188 C-183.85928345 85.70333862 -183.85928345 85.70333862 -182.29882812 84.02099609 C-181.33870819 82.98310944 -181.33870819 82.98310944 -180.35919189 81.92425537 C-174.83465651 76.21234378 -169.25909207 70.55459598 -163.64794922 64.92773438 C-162.62436247 63.89990656 -162.62436247 63.89990656 -161.5800972 62.85131454 C-157.97845561 59.23476879 -154.37401597 55.62104068 -150.76708984 52.00976562 C-147.04695649 48.28411839 -143.33621334 44.5492611 -139.62752342 40.81222725 C-136.76552162 37.93161649 -133.89684821 35.05772128 -131.02629471 32.18563461 C-129.65468868 30.81100448 -128.28558111 29.43387662 -126.91904831 28.05420303 C-125.01195484 26.13006428 -123.0956328 24.21560236 -121.17675781 22.30322266 C-120.61663498 21.73388504 -120.05651215 21.16454742 -119.47941589 20.57795715 C-116.50472308 17.63470888 -114.01260502 15.51966819 -109.93701172 14.41992188 C-105.6524702 14.49643154 -103.52537731 14.98504296 -100.06201172 17.54492188 C-97.47773414 21.04129743 -96.93701172 23.08352772 -96.93701172 27.41992188 C-98.63576262 32.13867437 -101.27275504 35.05276709 -104.93701172 38.41992188 C-100.75692859 47.54092808 -92.50186703 56.33369895 -83.93701172 61.41992188 C-75.14992409 63.85297096 -65.93545149 63.2867672 -56.93701172 62.41992188 C-56.95272217 61.84661133 -56.96843262 61.27330078 -56.98461914 60.68261719 C-57.43733806 41.63403906 -55.96850831 27.19148458 -42.45654297 12.78320312 C-29.71240488 0.82939918 -16.54830579 -0.03010232 0 0 Z M-28.56201172 30.24414062 C-34.32066579 37.51167281 -35.23042134 43.71375713 -35.06201172 52.79492188 C-35.05298828 53.72175781 -35.04396484 54.64859375 -35.03466797 55.60351562 C-35.01124109 57.87592264 -34.9784392 60.14778368 -34.93701172 62.41992188 C-28.09093473 62.47118681 -21.24490833 62.50588908 -14.39868164 62.52978516 C-12.07607168 62.53976104 -9.753474 62.55334655 -7.4309082 62.57080078 C18.61225007 62.76142885 40.7519082 61.21385134 60.85205078 42.67382812 C68.21091713 35.3619366 68.21091713 35.3619366 73.06298828 26.41992188 C74.38766574 25.73621738 75.72162461 25.07028002 77.06298828 24.41992188 C77.72298828 23.42992187 78.38298828 22.43992187 79.06298828 21.41992188 C67.50119176 21.35023823 55.93944567 21.29701752 44.37748146 21.26448536 C39.00808896 21.24886712 33.63884074 21.22769925 28.26953125 21.19360352 C23.08238696 21.1608728 17.89538097 21.14304 12.70814133 21.13529015 C10.73471273 21.12977119 8.76129121 21.11899428 6.78792191 21.1027317 C-12.58781532 20.50949374 -12.58781532 20.50949374 -28.56201172 30.24414062 Z M87.95751953 43.25195312 C84.94426573 46.70010954 82.08106953 50.26702769 79.19580078 53.82226562 C66.10609905 69.76485106 46.31224912 79.40657103 26.06298828 82.41992188 C18.53553674 83.09137787 10.97266183 82.97833571 3.42236328 82.95898438 C1.28060922 82.96891982 -0.86113632 82.9808717 -3.00286865 82.99472046 C-8.5938282 83.02681067 -14.18459222 83.03745004 -19.77563477 83.04156494 C-28.73442822 83.05038076 -37.69306336 83.08616752 -46.65172577 83.13373947 C-49.7540657 83.14618914 -52.85619765 83.14557922 -55.95855713 83.14346313 C-75.61709551 83.01184569 -75.61709551 83.01184569 -93.93701172 89.41992188 C-94.67435547 89.82984375 -95.41169922 90.23976563 -96.17138672 90.66210938 C-108.02344608 97.8959525 -115.23584261 108.53400107 -118.50822568 121.92631686 C-119.40295317 127.12960415 -119.21762673 132.40599521 -119.20443726 137.67070007 C-119.20817801 139.01302702 -119.21278122 140.35535179 -119.2181679 141.69767314 C-119.23036097 145.37143863 -119.23014181 149.0451128 -119.22777915 152.71889389 C-119.22737004 156.68701499 -119.23841914 160.65510718 -119.24789429 164.62321472 C-119.26448536 172.39230115 -119.27000299 180.16135722 -119.27111904 187.93045988 C-119.27207049 194.24833539 -119.27618559 200.56620091 -119.28252029 206.88407326 C-119.30012812 224.81099378 -119.30935997 242.73789039 -119.30785935 260.66481962 C-119.30777943 261.63064155 -119.30769952 262.59646348 -119.30761719 263.59155273 C-119.30753543 264.5585591 -119.30745366 265.52556547 -119.30736943 266.52187506 C-119.30655682 282.18748559 -119.32568921 297.8529999 -119.35389392 313.5185826 C-119.38265045 329.61819217 -119.39643267 345.71775485 -119.39470637 361.81739074 C-119.39404339 370.8503293 -119.39949523 379.88316701 -119.42106247 388.91608238 C-119.43931082 396.6080535 -119.44359174 404.29987805 -119.43004362 411.99186148 C-119.42353213 415.9125211 -119.42333039 419.83289985 -119.44075012 423.75353241 C-119.45656738 427.35066987 -119.45353025 430.94730579 -119.43618186 434.54443166 C-119.43169802 436.44521172 -119.4467012 438.34600788 -119.46266115 440.24672621 C-119.34944509 454.48290456 -114.99606843 467.20824647 -105.18701172 477.66992188 C-93.18807072 488.9832091 -79.72252776 491.58450209 -63.811203 491.55363464 C-62.93809976 491.5559002 -62.06499653 491.55816576 -61.16543561 491.56049997 C-58.26400385 491.56678815 -55.36261943 491.56601396 -52.46118164 491.56518555 C-50.37097616 491.56818026 -48.28077123 491.5715835 -46.19056702 491.57536316 C-40.5293148 491.58417517 -34.86807771 491.58654008 -29.2068193 491.58717895 C-25.66568772 491.58789099 -22.12455996 491.59002821 -18.58342934 491.59267616 C-6.21780784 491.60192001 6.1478029 491.60601221 18.51342773 491.60522461 C30.02126262 491.60462393 41.52905062 491.61517631 53.03687364 491.63096827 C62.93355364 491.64406304 72.83021836 491.6494077 82.72690696 491.6487692 C88.63041725 491.6485148 94.53388584 491.65133389 100.43738747 491.66194725 C105.99176031 491.67166095 111.54605184 491.67168501 117.10042763 491.66443062 C119.13205586 491.66338887 121.16368925 491.66572315 123.19530869 491.67179108 C139.51491699 491.71735416 155.42350647 491.64953323 169.06298828 481.41992188 C170.05298828 480.67742187 171.04298828 479.93492187 172.06298828 479.16992188 C182.4691401 470.17661573 186.48493044 457.70765986 188.06298828 444.41992188 C188.33809234 438.85522527 188.33386385 433.30155884 188.31695557 427.73126221 C188.31926371 426.06431116 188.3224426 424.39736113 188.32641006 422.7304132 C188.33471776 418.17810803 188.33065121 413.6258873 188.32443762 409.07358193 C188.31989773 404.15334278 188.3269044 399.23311778 188.33239746 394.31288147 C188.34127593 384.68644455 188.33937657 375.06003888 188.33357218 365.43360075 C188.32905066 357.61024936 188.3284449 349.78690671 188.33061981 341.96355438 C188.33107951 340.29175201 188.33107951 340.29175201 188.3315485 338.58617584 C188.33218796 336.3218891 188.33283639 334.05760236 188.33349368 331.79331562 C188.33919217 310.5784282 188.33264608 289.36355809 188.32189295 268.1486735 C188.31295295 249.94725155 188.31451411 231.74585509 188.32373047 213.54443359 C188.33443311 192.39790704 188.33864807 171.25139563 188.33250594 150.10486674 C188.33186885 147.85025327 188.33124011 145.59563979 188.33061981 143.34102631 C188.33031126 142.23175542 188.33000271 141.12248453 188.32968481 139.97959937 C188.32795822 132.16404125 188.3308721 124.34849273 188.33557892 116.5329361 C188.34118745 107.01106137 188.33967165 97.48921962 188.32901743 87.96734866 C188.32376114 83.10966654 188.32170337 78.2520394 188.32831573 73.39435768 C188.33427779 68.94719631 188.3309958 64.50014087 188.32036063 60.0529891 C188.31812777 58.4448726 188.31926034 56.83674714 188.32411221 55.22863641 C188.60280596 39.58073393 188.60280596 39.58073393 181.06298828 26.41992188 C173.15425108 20.44764893 164.35673927 21.23361517 154.9284668 21.23461914 C152.66386368 21.23245849 150.3997693 21.21435451 148.13525391 21.1953125 C124.74953984 21.10256608 104.49563301 25.80859554 87.95751953 43.25195312 Z M-125.18359375 57.43945312 C-126.55040283 58.82197266 -126.55040283 58.82197266 -127.94482422 60.23242188 C-128.43030731 60.72073486 -128.91579041 61.20904785 -129.41598511 61.7121582 C-130.96940303 63.27679405 -132.51573391 64.84823236 -134.06201172 66.41992188 C-135.11233433 67.48027221 -136.16310994 68.54017403 -137.21435547 69.59960938 C-139.79385588 72.20119144 -142.36704309 74.80891961 -144.93701172 77.41992188 C-141.45619432 81.56130518 -137.92005846 85.55783038 -134.06201172 89.35742188 C-132.89025391 90.51564453 -132.89025391 90.51564453 -131.69482422 91.69726562 C-131.11474609 92.26574219 -130.53466797 92.83421875 -129.93701172 93.41992188 C-129.39560547 92.71867187 -128.85419922 92.01742187 -128.29638672 91.29492188 C-121.90744189 83.50971758 -114.85560004 76.22223866 -105.93701172 71.41992188 C-110.60224023 65.79772341 -115.44960577 60.25981392 -120.93701172 55.41992188 C-123.1925936 55.19707953 -123.1925936 55.19707953 -125.18359375 57.43945312 Z " fill="#000000" transform="translate(243.93701171875,-0.419921875)"/>
<path d="M0 0 C4.48074649 2.09921887 7.09312458 5.24754125 10 9.125 C10.70177368 10.03946899 10.70177368 10.03946899 11.41772461 10.97241211 C12.42529371 12.28750435 13.42899609 13.60556639 14.42919922 14.92626953 C16.02955383 17.03901621 17.64029842 19.14345562 19.25390625 21.24609375 C21.46645691 24.13091942 23.67470806 27.01894373 25.87890625 29.91015625 C28.57642043 33.44751674 31.28533931 36.97578086 34 40.5 C37.98845963 45.68041308 41.96554468 50.8694219 45.9375 56.0625 C46.49373047 56.78953125 47.04996094 57.5165625 47.62304688 58.265625 C48.14833984 58.95269531 48.67363281 59.63976562 49.21484375 60.34765625 C49.68011475 60.95617432 50.14538574 61.56469238 50.62475586 62.19165039 C52 64 52 64 53.07699585 66.0789032 C55.52814702 68.52762317 57.39164295 68.49584863 60.76747131 68.56114197 C61.55149826 68.5561116 62.33552521 68.55108124 63.14331055 68.54589844 C64.38754791 68.56140495 64.38754791 68.56140495 65.65692139 68.57722473 C68.40038335 68.60673727 71.14311027 68.60815366 73.88671875 68.609375 C75.78816645 68.62435097 77.68960111 68.64107688 79.59101868 68.65948486 C84.59693995 68.70323617 89.60268575 68.72317468 94.60876465 68.73822021 C99.71649587 68.7577633 104.8240368 68.7997364 109.93164062 68.83984375 C119.9543685 68.9152301 129.97705395 68.96547052 140 69 C140.45224945 68.07201096 140.45224945 68.07201096 140.91363525 67.12527466 C142.0823642 64.83886945 143.44021445 62.91806984 144.984375 60.8671875 C145.58290283 60.06998291 146.18143066 59.27277832 146.7980957 58.45141602 C147.76428833 57.17609009 147.76428833 57.17609009 148.75 55.875 C149.41668701 54.99062256 150.08337402 54.10624512 150.77026367 53.19506836 C156.37055551 45.78592916 162.05692696 38.44549069 167.77734375 31.12890625 C170.66486735 27.43564151 173.52407899 23.72154158 176.375 20 C177.9155094 17.99910848 179.45710631 15.99905357 181 14 C182.09634766 12.57494141 182.09634766 12.57494141 183.21484375 11.12109375 C183.90707031 10.23550781 184.59929687 9.34992188 185.3125 8.4375 C185.90675781 7.67308594 186.50101563 6.90867188 187.11328125 6.12109375 C190.27282422 2.56906097 192.66008403 0.19489687 197.4375 -0.5 C201.74013178 0.10387814 203.78201548 1.08136288 207 4 C209.43467996 9.37658491 208.99976448 12.55971853 207 18 C205.33333347 20.37081185 203.68926338 22.50179063 201.8125 24.6875 C200.71970981 26.00537484 199.63001834 27.32582354 198.54296875 28.6484375 C197.96595215 29.34936523 197.38893555 30.05029297 196.79443359 30.77246094 C193.62813825 34.70297505 190.63358727 38.7608108 187.625 42.8125 C182.17332843 50.13295615 176.64268526 57.38245067 171.00634766 64.56176758 C169.95280754 65.90623467 168.91589228 67.26391245 167.8968811 68.63473511 C166 71 166 71 163.74481201 73.12763977 C154.04968685 83.32855259 155.61843972 96.0863902 155.6640625 109.38671875 C155.64781343 111.97444491 155.62949785 114.56215883 155.60922241 117.14985657 C155.57799164 122.56255384 155.58046389 127.97379327 155.60693359 133.38647461 C155.63647404 139.59898917 155.58563692 145.80714461 155.49482691 152.01896828 C155.41005937 158.04545133 155.39921552 164.06970639 155.41614914 170.09687233 C155.4147734 172.6367601 155.39332486 175.17672751 155.35042191 177.71625328 C155.1287214 192.76698983 156.04162831 203.1039053 166.57723999 214.4021759 C167.14017132 214.98136087 167.70310265 215.56054585 168.2830925 216.15728188 C171.29481637 219.38969723 173.86623116 222.95901351 176.5 226.5 C177.57889342 227.91546362 178.65940739 229.32969484 179.7421875 230.7421875 C180.27811523 231.44311523 180.81404297 232.14404297 181.36621094 232.86621094 C183.01499005 235.01957757 184.66723517 237.17024421 186.3203125 239.3203125 C189.03194441 242.84842696 191.73016639 246.38647257 194.42138672 249.93017578 C195.47778268 251.31528635 196.53935917 252.69646044 197.60595703 254.07373047 C199.14502251 256.0611963 200.667558 258.06039046 202.1875 260.0625 C202.64527832 260.64531738 203.10305664 261.22813477 203.57470703 261.82861328 C206.76561848 266.08032336 208.12268375 269.73610249 209 275 C207.87873972 278.30148861 206.62717249 280.30314168 204.3125 282.875 C200.95463818 284.5085544 197.62104989 284.68779719 194 284 C188.38704483 281.68489223 185.49290929 276.69578085 182.0625 271.9375 C180.72799522 270.12134221 179.39202505 268.30626038 178.0546875 266.4921875 C177.38018555 265.57405273 176.70568359 264.65591797 176.01074219 263.70996094 C172.96827163 259.60949674 169.83478987 255.58275761 166.6875 251.5625 C165.52990986 250.0807589 164.37235679 248.59898884 163.21484375 247.1171875 C162.66940918 246.41948242 162.12397461 245.72177734 161.56201172 245.00292969 C158.48544812 241.05792691 155.44039025 237.08890655 152.3984375 233.1171875 C150.66420941 230.86325588 148.92030254 228.61943235 147.1640625 226.3828125 C146.69774414 225.78573486 146.23142578 225.18865723 145.75097656 224.57348633 C144.85315894 223.42445182 143.95162727 222.2783069 143.04589844 221.13549805 C140 217.22487421 140 217.22487421 140 215 C129.159386 214.71222786 118.321865 214.5238982 107.47749901 214.45853233 C102.44003865 214.42512702 97.40767594 214.35896473 92.37207031 214.21484375 C69.65959897 212.29926514 69.65959897 212.29926514 49.37597656 219.83691406 C46.19041956 223.45381743 44.01569337 227.29071809 42.09725952 231.69386292 C40.27368881 235.52650593 37.63013284 238.69459831 35 242 C34.01953092 243.3056693 33.04250172 244.6139352 32.0703125 245.92578125 C28.14533988 251.15865191 24.12182626 256.31450401 20.09228516 261.46704102 C17.38101775 264.93429851 14.68077849 268.40712108 12.03125 271.921875 C11.5789502 272.5197583 11.12665039 273.1176416 10.66064453 273.73364258 C9.46507909 275.31811869 8.27527033 276.90693401 7.0859375 278.49609375 C2.76836965 283.67879223 2.76836965 283.67879223 -1 284.36328125 C-8.19642342 284.18055956 -8.19642342 284.18055956 -11 282 C-13.6888777 278.73493423 -14.79562417 275.53748338 -14.58203125 271.265625 C-13.41375258 266.71796308 -10.30297457 263.32639583 -7.39550781 259.73291016 C-5.24026852 257.05658256 -3.14470987 254.33443206 -1.03955078 251.61865234 C0.16517448 250.06615101 1.37258521 248.51573027 2.58251953 246.96728516 C6.4475157 242.02086983 10.25073654 237.03458092 14 232 C20.06668473 223.85589484 26.3032441 215.84744651 32.56469727 207.85253906 C33.03834717 207.24120117 33.51199707 206.62986328 34 206 C34.51549691 205.40359113 35.03099382 204.80718225 35.56211185 204.19270039 C37.26755531 201.59199286 37.39559078 200.15101268 37.44151306 197.06425476 C37.46297897 196.07073502 37.48444489 195.07721527 37.50656128 194.05358887 C37.51462799 192.96944702 37.5226947 191.88530518 37.53100586 190.76831055 C37.55071945 189.62139236 37.57043304 188.47447418 37.59074402 187.2928009 C37.64994606 183.49076738 37.6849403 179.68909033 37.71484375 175.88671875 C37.72707033 174.58520182 37.73929691 173.28368488 37.751894 171.94272804 C37.80905034 165.75709802 37.85172257 159.5715746 37.87672991 153.3857314 C37.90594424 146.2786931 37.98460932 139.17448414 38.10623258 132.06844109 C38.19728223 126.55647265 38.24118981 121.04530541 38.25107294 115.5326007 C38.25807018 112.24935633 38.29026775 108.96978881 38.36045647 105.68720055 C38.87345589 86.99309322 38.87345589 86.99309322 29.61026669 71.46568584 C28.57888762 70.44921425 27.5350021 69.44523742 26.47755623 68.45591164 C24.12862088 66.14138563 22.3008844 63.54878019 20.375 60.875 C17.36722109 56.82689613 14.32874955 52.8069548 11.25 48.8125 C10.84338135 48.28470947 10.4367627 47.75691895 10.01782227 47.21313477 C8.14688455 44.78475889 6.27531397 42.35687289 4.40283203 39.9296875 C1.06513473 35.59970181 -2.25467257 31.25697817 -5.55371094 26.89746094 C-6.81363691 25.24449932 -8.09631948 23.60893234 -9.3828125 21.9765625 C-12.13723615 18.35232085 -14.3936198 15.38294259 -14.75 10.75 C-13.79946628 5.99733138 -12.43393466 4.35217431 -9 1 C-5.93570224 -0.53214888 -3.3834358 -0.22938548 0 0 Z M60 90 C60 124.32 60 158.64 60 194 C84.42 194 108.84 194 134 194 C134 159.68 134 125.36 134 90 C109.58 90 85.16 90 60 90 Z " fill="#000000" transform="translate(181,145)"/>
</svg>
