<svg class="svg-icon" style="width: 1em; height: 1em;vertical-align: middle;fill: currentColor;overflow: hidden;" viewBox="0 0 1024 1024" version="1.1" xmlns="http://www.w3.org/2000/svg"><path d="M488.106667 819.2c-27.306667 0-54.613333-10.24-71.68-30.72l-238.933334-249.173333c-6.826667 0-6.826667-6.826667-6.826666-10.24s3.413333-10.24 6.826666-13.653334L433.493333 273.066667c23.893333-20.48 61.44-20.48 81.92 0l105.813334 116.053333c17.066667 17.066667 30.72 44.373333 30.72 71.68v177.493333c0 27.306667-10.24 54.613333-30.72 71.68L563.2 785.066667c-23.893333 23.893333-47.786667 34.133333-75.093333 34.133333z m-276.48-290.133333l228.693333 235.52c23.893333 23.893333 71.68 23.893333 95.573333 0l58.026667-75.093334c13.653333-13.653333 20.48-30.72 20.48-51.2v-177.493333c0-17.066667-6.826667-34.133333-20.48-47.786667l-105.813333-116.053333c-10.24-10.24-23.893333-10.24-34.133334 0l-242.346666 232.106667z" fill="" /><path d="M317.44 675.84c-3.413333 0-10.24 0-13.653333-3.413333-6.826667-6.826667-6.826667-17.066667 0-23.893334l283.306666-279.893333 170.666667-187.733333c0-3.413333 3.413333-3.413333 6.826667-3.413334l170.666666-78.506666-27.306666-54.613334-177.493334 61.44L529.066667 307.2c-6.826667 6.826667-17.066667 6.826667-23.893334 0s-6.826667-17.066667 0-23.893333l204.8-204.8c3.413333-3.413333 3.413333-3.413333 6.826667-3.413334l197.973333-68.266666c6.826667-3.413333 17.066667 0 20.48 6.826666l44.373334 85.333334c3.413333 3.413333 3.413333 10.24 0 13.653333 0 3.413333-3.413333 6.826667-10.24 10.24L785.066667 208.213333l-167.253334 184.32-283.306666 283.306667c-10.24-3.413333-13.653333 0-17.066667 0z" fill="" /><path d="M460.8 682.666667c-10.24 0-17.066667-6.826667-17.066667-17.066667V512c0-10.24 6.826667-17.066667 17.066667-17.066667s17.066667 6.826667 17.066667 17.066667v153.6c0 10.24-6.826667 17.066667-17.066667 17.066667zM460.8 819.2H204.8c-17.066667 0-30.72-6.826667-40.96-17.066667l-3.413333-3.413333-40.96-71.68c-17.066667-17.066667-20.48-44.373333-10.24-68.266667l64.853333-136.533333c3.413333-10.24 13.653333-13.653333 20.48-10.24 10.24 6.826667 13.653333 17.066667 10.24 23.893333l-64.853333 136.533334c-6.826667 10.24-3.413333 23.893333 3.413333 30.72l3.413333 3.413333 40.96 71.68c3.413333 3.413333 10.24 6.826667 17.066667 6.826667h256c10.24 0 17.066667 6.826667 17.066667 17.066666s-6.826667 17.066667-17.066667 17.066667z" fill="" /><path d="M17.066667 1024c-10.24 0-17.066667-6.826667-17.066667-17.066667v-10.24-3.413333c3.413333-81.92 44.373333-170.666667 105.813333-238.933333l27.306667-27.306667c6.826667-6.826667 17.066667-6.826667 23.893333 0s6.826667 17.066667 0 23.893333l-27.306666 27.306667C71.68 843.093333 34.133333 931.84 34.133333 1006.933333c0 10.24-6.826667 17.066667-17.066666 17.066667z" fill="" /><path d="M955.733333 409.6c-37.546667 0-68.266667-30.72-68.266666-68.266667 0-30.72 44.373333-112.64 54.613333-126.293333 6.826667-10.24 23.893333-10.24 30.72 0 6.826667 13.653333 51.2 95.573333 51.2 126.293333 0 37.546667-30.72 68.266667-68.266667 68.266667z m0-150.186667c-17.066667 34.133333-34.133333 71.68-34.133333 81.92 0 20.48 13.653333 34.133333 34.133333 34.133334s34.133333-13.653333 34.133334-34.133334c0-10.24-17.066667-47.786667-34.133334-81.92z" fill="" /></svg>