<?xml version="1.0" encoding="UTF-8"?>
<svg version="1.1" xmlns="http://www.w3.org/2000/svg" width="464" height="512">
<path d="M0 0 C0.73270247 -0.00453111 1.46540494 -0.00906223 2.22031051 -0.01373065 C4.65270224 -0.02629665 7.08486781 -0.02475937 9.51728821 -0.02310181 C11.27075485 -0.02909202 13.02421886 -0.0358987 14.77767944 -0.04345703 C19.52587523 -0.06107608 24.27399886 -0.06581074 29.02222419 -0.0670886 C31.99399862 -0.06851332 34.96575489 -0.07278904 37.9375248 -0.07808304 C48.32024417 -0.09657125 58.70291229 -0.10475535 69.08564758 -0.10317993 C78.73887409 -0.10197954 88.39187664 -0.12306489 98.04504651 -0.15466726 C106.35278386 -0.18088833 114.66044835 -0.19154475 122.96822673 -0.19026911 C127.92113522 -0.1897611 132.87384466 -0.19535456 137.82671165 -0.21662521 C142.4898099 -0.23610558 147.15252123 -0.2360656 151.81563377 -0.22159195 C153.51788402 -0.2195147 155.22015911 -0.22413936 156.9223671 -0.23631287 C176.11546304 -0.36457953 191.61656831 4.76072108 205.56147766 18.41195679 C218.24680127 31.67801052 222.57412118 47.18012229 222.61079407 65.14291382 C222.62083969 66.28554184 222.63088531 67.42816986 222.64123535 68.60542297 C222.67191168 72.34952328 222.68905923 76.0935526 222.70600891 79.83773804 C222.72473305 82.44662073 222.74430739 85.05549745 222.76469421 87.66436768 C222.81128444 93.80867083 222.84812342 99.95299128 222.88136709 106.09737957 C222.91972904 113.09874335 222.96910179 120.10001636 223.01935124 127.10130334 C223.12237682 141.48994211 223.21173172 155.87864241 223.29194641 170.26742554 C224.11904114 170.53877319 224.94613586 170.81012085 225.79829407 171.08969116 C226.88158997 171.44740601 227.96488586 171.80512085 229.08100891 172.17367554 C230.15560364 172.52752319 231.23019836 172.88137085 232.33735657 173.24594116 C250.37550361 179.48223328 262.30173402 194.94261954 270.41304016 211.50180054 C281.37691453 235.13583911 285.36788106 262.35304616 286.22016907 288.23568726 C286.2690974 289.62065877 286.33184876 291.00519455 286.4066925 292.38900757 C287.15550347 306.79335017 285.25612223 320.7328014 283.15864563 334.94589233 C278.76193175 364.79208911 274.50141425 403.90476395 291.47944641 430.82992554 C296.95265938 437.94984111 304.12508542 441.6947384 312.93257141 443.02133179 C321.98187837 443.96521645 330.50409407 442.75001564 338.66694641 438.51742554 C350.59731999 428.29139104 354.19919129 414.48494872 355.97944641 399.26742554 C356.11496109 397.2693048 356.21360848 395.26860366 356.29194641 393.26742554 C356.33279358 392.226427 356.33279358 392.226427 356.37446594 391.16439819 C356.75840933 379.56158071 356.16240947 368.11220832 355.06147766 356.56039429 C354.99694963 355.87603806 354.93242161 355.19168182 354.86593819 354.48658752 C353.33010528 338.34159787 351.06268584 322.31294092 348.72944641 306.26742554 C342.11778631 260.75165993 342.11778631 260.75165993 342.22944641 237.95883179 C342.23350243 236.45284927 342.23350243 236.45284927 342.23764038 234.91644287 C342.25289055 230.84610461 342.27014497 226.77799174 342.36372375 222.70858765 C343.03423787 210.81195024 343.03423787 210.81195024 339.1242218 199.99472046 C336.62193562 197.74803556 334.14329508 196.03263895 331.29194641 194.26742554 C316.16362373 179.20557663 303.25167309 159.07721421 302.29194641 137.26742554 C302.60100157 121.96568317 307.10092605 110.14478643 315.29194641 97.26742554 C308.6133686 92.31976146 301.87137063 88.24385658 294.35444641 84.70492554 C292.85554871 83.99614258 292.85554871 83.99614258 291.32637024 83.27304077 C278.39197196 77.29849744 265.13992685 73.33458913 251.16377258 70.64657593 C246.23394811 69.66220516 241.92533733 68.70013542 239.00679016 64.35336304 C237.73216632 60.63396887 237.61640418 57.1333999 238.29194641 53.26742554 C240.0056325 50.19680586 242.10096093 47.86291828 245.29194641 46.26742554 C252.96621541 45.63849826 260.01036006 46.7211353 267.41694641 48.64242554 C268.44320129 48.90571655 269.46945618 49.16900757 270.52680969 49.4402771 C300.53727328 57.51774067 329.79498954 72.62424312 352.29194641 94.26742554 C353.66065705 95.46216921 355.03546825 96.64996819 356.41694641 97.82992554 C373.50277884 112.82710911 386.58490433 131.47761295 389.10444641 154.51742554 C390.04521672 171.0201047 386.23106481 185.75149728 375.29194641 198.26742554 C373.83556768 199.44208679 372.3574247 200.59050896 370.85444641 201.70492554 C368.54637702 203.62605831 367.42643185 204.70605765 366.71870422 207.6602478 C366.21684818 216.37657475 366.22608456 225.04555785 366.47944641 233.76742554 C366.5130275 234.94289948 366.5130275 234.94289948 366.54728699 236.14212036 C367.31831983 261.30855642 370.82005993 286.0453267 374.3327179 310.95223999 C374.51148468 312.22024445 374.69025146 313.4882489 374.87443542 314.79467773 C375.23511952 317.35282214 375.59622155 319.91090766 375.95774841 322.46893311 C388.87145271 414.21479466 388.87145271 414.21479466 364.04194641 449.14242554 C355.70678547 459.17825832 344.03526912 465.24289691 331.29194641 467.26742554 C311.57180084 468.81483394 294.88195714 467.34438222 279.11616516 454.49398804 C261.30576273 438.10150114 256.67970477 411.93569302 255.41694641 388.83773804 C254.66181811 367.26938586 256.19487054 345.91459949 259.41694641 324.57992554 C264.62752569 289.14562336 262.90386492 243.20921504 242.29194641 212.26742554 C236.54956757 204.66624198 231.85950515 201.40796078 223.29194641 196.26742554 C222.96194641 278.10742554 222.63194641 359.94742554 222.29194641 444.26742554 C223.94194641 444.92742554 225.59194641 445.58742554 227.29194641 446.26742554 C235.63485077 452.12520945 240.38903569 460.31451316 242.29194641 470.26742554 C242.67756954 475.25988463 242.7664069 480.21316866 242.73799133 485.21859741 C242.72940923 487.5274273 242.7584458 489.83383427 242.78999329 492.14242554 C242.79160408 493.62679981 242.79103009 495.11117841 242.78804016 496.59555054 C242.80489113 497.6176059 242.80489113 497.6176059 242.82208252 498.66030884 C242.75014098 503.62956521 241.4067017 506.44635814 238.29194641 510.26742554 C234.99771784 512.46357792 234.02902663 512.51934788 230.20470619 512.52748775 C229.14634768 512.53455335 228.08798917 512.54161894 226.99755919 512.54889864 C225.83075098 512.54648355 224.66394277 512.54406847 223.46177673 512.5415802 C222.22542492 512.54681688 220.98907311 512.55205356 219.71525609 512.55744892 C216.27694513 512.56988543 212.83883838 512.57329167 209.40051889 512.57285202 C205.69490079 512.57449764 201.98932017 512.58755932 198.28372192 512.5990448 C190.178451 512.62191298 182.07320623 512.62981723 173.96790743 512.63487124 C168.90888738 512.63812589 163.84987496 512.64464693 158.79085922 512.65187263 C144.78915209 512.67144026 130.78745205 512.68784374 116.78573036 512.69074917 C115.44124581 512.69103052 115.44124581 512.69103052 114.06959995 512.69131756 C112.25246803 512.69168382 110.43533611 512.69204752 108.61820419 512.69240867 C107.71615436 512.69259148 106.81410453 512.6927743 105.88471985 512.69296265 C104.98157163 512.6931432 104.07842341 512.69332374 103.14790706 512.69350976 C88.50796047 512.69705272 73.86816085 512.72408194 59.22826524 512.76146054 C44.20462336 512.79951261 29.18105446 512.81890641 14.1573633 512.81920868 C5.71925724 512.81979392 -2.71867346 512.82832878 -11.15673447 512.85720634 C-18.34073696 512.88167877 -25.52450016 512.88903125 -32.70853303 512.87395882 C-36.3750809 512.86677298 -40.04115583 512.86771834 -43.70765114 512.89036942 C-47.67995133 512.91467501 -51.65157132 512.90037047 -55.62391663 512.88215637 C-56.78626339 512.89535634 -57.94861016 512.90855631 -59.14617956 512.92215627 C-66.9358044 512.84021058 -66.9358044 512.84021058 -70.8823185 509.91304111 C-74.12464895 505.21468153 -74.96079917 501.02051384 -74.97367859 495.38070679 C-74.97625671 494.27662476 -74.97883484 493.17254272 -74.98149109 492.03500366 C-74.97375671 490.89482788 -74.96602234 489.7546521 -74.95805359 488.57992554 C-74.96578796 487.45908569 -74.97352234 486.33824585 -74.98149109 485.18344116 C-74.95120296 472.13683156 -73.50313276 459.90481382 -64.02055359 450.20492554 C-62.2549623 448.54112 -60.87872873 447.35276311 -58.70805359 446.26742554 C-58.70669706 445.44675401 -58.70534053 444.62608249 -58.70394289 443.78054214 C-58.62327524 395.13004506 -58.5323134 346.4795765 -58.42800198 297.82912408 C-58.41548326 291.98629243 -58.40305046 286.1434606 -58.39067078 280.30062866 C-58.38820478 279.13743663 -58.38573879 277.97424459 -58.38319807 276.77580431 C-58.34348527 257.94692733 -58.31073137 239.11804437 -58.28055377 220.28914997 C-58.24942872 200.96586199 -58.21081478 181.64259941 -58.16526353 162.31933999 C-58.13739654 150.39796214 -58.11535571 138.47660285 -58.10079108 126.5552012 C-58.09024081 118.37785427 -58.07240966 110.20054331 -58.04888655 102.02322349 C-58.03553343 97.30690615 -58.02535844 92.59063917 -58.02383995 87.87430191 C-58.02237696 83.55103324 -58.01171076 79.2278857 -57.99391918 74.90465429 C-57.98909421 73.34591153 -57.9875618 71.7871541 -57.98977478 70.22840545 C-58.01371456 50.04323162 -54.226628 32.1905517 -39.95805359 17.01742554 C-29.04810097 6.71944318 -15.06474252 0.03874717 0 0 Z M-24.14555359 35.64242554 C-33.22899625 46.73202731 -34.00509615 57.94223709 -33.94856262 71.80758667 C-33.94943539 73.39841515 -33.95118768 74.98924335 -33.95374095 76.58007002 C-33.95820447 80.94023659 -33.9502245 85.30030455 -33.94018483 89.66045856 C-33.93153828 94.36656498 -33.93447135 99.07266595 -33.93598938 103.77877808 C-33.93703747 111.92869888 -33.93076882 120.07858763 -33.9195137 128.22850037 C-33.90325136 140.01186472 -33.89804994 151.79521359 -33.89553772 163.57858795 C-33.89116177 182.69688114 -33.87785538 201.81515725 -33.8589325 220.93344116 C-33.84057111 239.50375281 -33.8264388 258.07405979 -33.81791687 276.64437866 C-33.81738088 277.80095584 -33.81684488 278.95753303 -33.81629264 280.149158 C-33.81213374 289.1945126 -33.80821991 298.23986731 -33.80438352 307.28522205 C-33.78552025 351.61263889 -33.74528266 395.94001297 -33.70805359 440.26742554 C42.85194641 440.26742554 119.41194641 440.26742554 198.29194641 440.26742554 C198.40847976 371.93052132 198.40847976 371.93052132 198.48725891 303.59359741 C198.49509034 294.38062512 198.50317225 285.1676531 198.51167297 275.9546814 C198.51325547 274.2226499 198.51325547 274.2226499 198.51486993 272.45562786 C198.5322647 253.81679862 198.56379863 235.17801877 198.6005576 216.53921881 C198.63797056 197.40918884 198.66018302 178.27918472 198.66830039 159.14911968 C198.67378741 147.34590779 198.69111456 135.54283543 198.72361228 123.7396665 C198.74476451 115.6445626 198.75114483 107.5495308 198.74595192 99.45440128 C198.74339127 94.78470339 198.74730236 90.11524927 198.76876831 85.44559479 C198.78829669 81.1660954 198.78917583 76.88700268 198.77554199 72.6074842 C198.77385804 71.0635489 198.77887894 69.51958777 198.79147914 67.97570296 C198.88857047 55.33917287 197.06009254 44.83458738 188.29194641 35.26742554 C179.49839465 26.34972951 169.4262956 23.24117808 157.04414368 23.01345825 C154.14875012 22.99405607 151.25377984 23.00037777 148.35835266 23.00863647 C146.75588319 23.00592256 145.15341498 23.00235939 143.5509491 22.99801636 C139.22040595 22.98893769 134.88995863 22.99241787 130.55941391 22.99877453 C126.01525881 23.00385801 121.47111161 22.99913657 116.92695618 22.9960022 C109.29762813 22.99236938 101.66833887 22.99714367 94.03901672 23.00668335 C85.23383125 23.01756658 76.42873841 23.01404051 67.62355518 23.00303054 C60.04706692 22.99393814 52.47060645 22.99268193 44.89411449 22.99790788 C40.37624787 23.00101685 35.8584247 23.00146651 31.34056091 22.9948349 C27.09203404 22.98903361 22.84362596 22.99310901 18.59511185 23.00462341 C17.04115623 23.00725516 15.48719051 23.00653046 13.93323898 23.00209808 C-0.69390352 22.96424122 -13.64129527 24.33765683 -24.14555359 35.64242554 Z M334.29194641 112.26742554 C328.21159132 122.99933166 324.6867987 131.76772996 327.35444641 144.32992554 C330.39148149 154.82274494 336.25358368 163.06700667 343.29194641 171.26742554 C343.98932922 172.09887085 344.68671204 172.93031616 345.40522766 173.78695679 C348.8040832 177.74908782 351.67719587 180.72492913 356.29194641 183.26742554 C362.99629313 174.77103645 366.30117461 167.38762509 365.29194641 156.26742554 C362.42846439 138.91666582 351.56973629 124.44515681 338.29194641 113.26742554 C336.12464177 112.45070044 336.12464177 112.45070044 334.29194641 112.26742554 Z M-49.70805359 471.26742554 C-51.60834596 476.96830266 -50.70805359 483.25817341 -50.70805359 489.26742554 C38.06194641 489.26742554 126.83194641 489.26742554 218.29194641 489.26742554 C219.74968438 473.72516351 219.74968438 473.72516351 215.29194641 467.26742554 C212.16690665 465.1840657 211.47361236 465.01596389 207.92310524 465.00457001 C207.02498293 464.99688772 206.12686061 464.98920543 205.20152247 464.98129034 C204.21369788 464.9830233 203.22587329 464.98475627 202.20811462 464.98654175 C201.15960622 464.9805995 200.11109782 464.97465726 199.03081644 464.96853495 C195.50015207 464.95112348 191.96962303 464.94814135 188.43891907 464.94515991 C185.91459868 464.93590631 183.3902811 464.92585736 180.8659668 464.91506958 C173.99619209 464.88879338 167.1264621 464.87585351 160.25664568 464.86704826 C155.96816926 464.86152438 151.67970186 464.85304991 147.39123154 464.84403992 C135.52039214 464.81965545 123.64955997 464.7990559 111.77869606 464.79228973 C111.01888314 464.7918506 110.25907022 464.79141147 109.47623267 464.79095903 C108.71459263 464.79052247 107.9529526 464.79008592 107.16823256 464.78963614 C105.62483509 464.7887492 104.08143762 464.78785607 102.53804016 464.78695679 C101.38967025 464.7862925 101.38967025 464.7862925 100.21810095 464.78561479 C87.8090635 464.77771637 75.40026076 464.74280072 62.99131401 464.69623774 C50.25481574 464.64883088 37.51843531 464.62388701 24.78184736 464.6215539 C17.6291859 464.61971933 10.47683036 464.60818867 3.32425308 464.57191467 C-3.40143458 464.53792599 -10.12644183 464.53459169 -16.85222435 464.55219269 C-19.3238054 464.55373889 -21.79541707 464.54497634 -24.26692009 464.52527618 C-27.635399 464.49999603 -31.0017925 464.5114994 -34.37025452 464.53244019 C-35.35361766 464.51632738 -36.33698081 464.50021457 -37.35014284 464.48361349 C-43.88475391 464.57895339 -46.26423398 465.62191941 -49.70805359 471.26742554 Z " fill="#000000" transform="translate(74.70805358886719,-0.267425537109375)"/>
<path d="M0 0 C1.30534195 -0.0071553 2.6106839 -0.01431061 3.95558167 -0.02168274 C7.50732991 -0.04006763 11.05831956 -0.02734289 14.61003542 -0.00759244 C18.34186843 0.00889644 22.07365725 -0.00003265 25.80551147 -0.00511169 C32.06789146 -0.00962019 38.32997153 0.00616222 44.59228516 0.03417969 C51.81679926 0.06625421 59.04077358 0.06620107 66.26532614 0.04896492 C73.23859162 0.0330661 80.21166051 0.03985304 87.18491745 0.05690193 C90.14249324 0.06374721 93.09991026 0.06276622 96.05748367 0.05535698 C100.19096795 0.0462276 104.32362745 0.07030135 108.45703125 0.09765625 C110.28384682 0.08786743 110.28384682 0.08786743 112.14756775 0.07788086 C120.14440367 0.16773455 125.65769075 1.17720201 131.84130859 6.59594727 C132.38013672 7.24692383 132.91896484 7.89790039 133.47412109 8.56860352 C134.02841797 9.21700195 134.58271484 9.86540039 135.15380859 10.53344727 C138.72345295 15.71425543 138.89637533 20.33666849 138.88964844 26.42529297 C138.89636566 27.30074768 138.90308289 28.17620239 138.91000366 29.07818604 C138.92897216 31.96697699 138.93290739 34.85553544 138.93505859 37.74438477 C138.9414877 39.758317 138.94821615 41.77224831 138.95523071 43.78617859 C138.96720088 48.00688847 138.97091184 52.22751653 138.96972656 56.44824219 C138.96952348 61.84515658 138.99681593 67.24154377 139.03127098 72.63833332 C139.05355702 76.79831837 139.05756356 80.95817693 139.05650711 85.11821556 C139.05886087 87.10724897 139.06767164 89.09628598 139.08317184 91.08526039 C139.1028646 93.87345436 139.09698075 96.66051656 139.08496094 99.44873047 C139.09619995 100.26303024 139.10743896 101.07733002 139.11901855 101.91630554 C139.04588697 108.62413072 137.07381711 113.80709653 132.63427734 118.87329102 C131.98330078 119.41211914 131.33232422 119.95094727 130.66162109 120.50610352 C130.01322266 121.06040039 129.36482422 121.61469727 128.69677734 122.18579102 C124.55984907 125.03618852 120.92435377 125.88155559 115.9400177 125.90525818 C114.81168518 125.91523331 113.68335266 125.92520844 112.52082825 125.93548584 C111.29216537 125.93615051 110.0635025 125.93681519 108.79760742 125.9375 C107.49620819 125.94582352 106.19480896 125.95414703 104.85397339 125.96272278 C101.28965344 125.98463123 97.72541926 125.99346216 94.16103959 125.99854922 C91.93053253 126.00219828 89.70004773 126.0084413 87.46954918 126.01555061 C79.677362 126.04003611 71.88524126 126.05309426 64.09301758 126.05664062 C56.8476125 126.06027131 49.60263222 126.09013507 42.35735685 126.13204521 C36.12359105 126.16683058 29.88996542 126.18219051 23.65610331 126.18288666 C19.93890601 126.18367693 16.22214133 126.19229837 12.50504494 126.22088432 C8.35226524 126.25210688 4.20048584 126.24296617 0.04760742 126.23046875 C-1.1709343 126.24530304 -2.38947601 126.26013733 -3.64494324 126.27542114 C-12.00569679 126.20396706 -19.26216362 124.81440328 -25.34053326 118.67055416 C-30.86144503 112.1178675 -31.70356388 104.53940661 -31.67553711 96.26245117 C-31.68064804 95.46779953 -31.68575897 94.67314789 -31.69102478 93.85441589 C-31.70482115 91.25125402 -31.7039715 88.6483599 -31.70166016 86.04516602 C-31.70555267 84.21967472 -31.70988848 82.39418432 -31.71464539 80.56869507 C-31.7220863 76.75092629 -31.72183189 72.93325003 -31.71655273 69.11547852 C-31.71076225 64.2446673 -31.72768932 59.37423686 -31.75089741 54.50348854 C-31.76569326 50.73546162 -31.76649849 46.96752516 -31.76338768 43.19947433 C-31.763898 41.40468975 -31.7690808 39.60989972 -31.7791996 37.81514359 C-31.88107105 17.22050301 -31.88107105 17.22050301 -26.33837891 8.31860352 C-18.37608057 1.03394759 -10.49967625 -0.1011381 0 0 Z M-7.40087891 24.63110352 C-7.40087891 50.04110352 -7.40087891 75.45110352 -7.40087891 101.63110352 C32.85912109 101.63110352 73.11912109 101.63110352 114.59912109 101.63110352 C114.59912109 76.22110352 114.59912109 50.81110352 114.59912109 24.63110352 C74.33912109 24.63110352 34.07912109 24.63110352 -7.40087891 24.63110352 Z " fill="#000000" transform="translate(104.40087890625,56.368896484375)"/>
</svg>
