<?xml version="1.0" encoding="UTF-8"?>
<svg version="1.1" xmlns="http://www.w3.org/2000/svg" width="512" height="512">
<path d="M0 0 C49.03995745 -0.84551651 98.44345802 14.72612781 136.4140625 46.12109375 C137.47642702 46.97933439 138.53892964 47.83740412 139.6015625 48.6953125 C152.76861938 59.45412399 164.3717727 71.39821748 174.4140625 85.12109375 C175.18234375 86.1678125 175.950625 87.21453125 176.7421875 88.29296875 C209.84377746 134.82037841 222.72808632 191.95896344 213.44921875 248.23828125 C209.98231248 267.63048148 204.38439063 286.73437398 195.35009766 304.30078125 C194.33569743 306.27349071 193.35051827 308.25966435 192.36328125 310.24609375 C167.72848226 359.01090302 123.02950316 395.97920635 71.5390625 413.49609375 C17.54971301 431.05164081 -41.27127363 426.64456693 -92.11962891 401.39990234 C-104.78396965 394.83330001 -116.59664437 387.20729315 -127.5859375 378.12109375 C-128.64830202 377.26285311 -129.71080464 376.40478338 -130.7734375 375.546875 C-143.93898359 364.78929797 -155.54893046 352.84620887 -165.5859375 339.12109375 C-166.18680176 338.30342529 -166.18680176 338.30342529 -166.79980469 337.46923828 C-172.69712056 329.3768374 -177.8307411 320.92034052 -182.5859375 312.12109375 C-182.90916992 311.53585937 -183.23240234 310.950625 -183.56542969 310.34765625 C-209.39419871 263.26476586 -214.23147265 205.42536721 -199.71777344 154.04785156 C-191.54338056 126.75075382 -179.34783048 102.3895603 -161.5859375 80.12109375 C-161.13105957 79.54907227 -160.67618164 78.97705078 -160.20751953 78.38769531 C-149.64907225 65.23303501 -137.86205912 53.44236592 -124.30078125 43.39599609 C-122.64148199 42.16238836 -121.00404146 40.903784 -119.3671875 39.640625 C-85.37358043 13.88076359 -42.22705525 1.4259681 0 0 Z M-52.5859375 22.12109375 C-52.0562569 26.62059102 -51.2265539 30.48989854 -49.5234375 34.68359375 C-48.02586001 38.65353553 -46.94171315 41.82626476 -47.5859375 46.12109375 C-48.2459375 47.11109375 -48.9059375 48.10109375 -49.5859375 49.12109375 C-55.72323059 49.79061663 -55.72323059 49.79061663 -58.20825195 47.86206055 C-59.75734689 45.9044855 -60.43371565 44.26472222 -61.19140625 41.890625 C-61.45244141 41.08818359 -61.71347656 40.28574219 -61.98242188 39.45898438 C-62.24345703 38.62560547 -62.50449219 37.79222656 -62.7734375 36.93359375 C-63.18239258 35.66612305 -63.18239258 35.66612305 -63.59960938 34.37304688 C-64.2699262 32.29153675 -64.93167265 30.20769387 -65.5859375 28.12109375 C-71.46611841 28.67055328 -76.21739618 31.0234067 -81.4609375 33.55859375 C-82.38116699 34.00017822 -83.30139648 34.4417627 -84.24951172 34.89672852 C-98.95389187 41.9937044 -98.95389187 41.9937044 -111.5859375 52.12109375 C-111.22242188 52.56912354 -110.85890625 53.01715332 -110.484375 53.47875977 C-108.83369074 55.53338552 -107.2099616 57.60784222 -105.5859375 59.68359375 C-105.01359375 60.38806641 -104.44125 61.09253906 -103.8515625 61.81835938 C-101.08474795 65.3921615 -99.6720531 67.44898838 -99.0859375 72.0234375 C-99.5859375 75.12109375 -99.5859375 75.12109375 -101.5859375 77.12109375 C-104.7734375 77.74609375 -104.7734375 77.74609375 -108.5859375 77.12109375 C-111.36934345 74.7955641 -113.43591766 72.02705664 -115.5859375 69.12109375 C-116.17117187 68.35796875 -116.75640625 67.59484375 -117.359375 66.80859375 C-118.79021135 64.92768212 -120.19748562 63.03339377 -121.5859375 61.12109375 C-125.38710329 62.42751223 -127.78233606 63.93367542 -130.625 66.76171875 C-131.36564697 67.49632324 -132.10629395 68.23092773 -132.86938477 68.98779297 C-133.64209717 69.77428223 -134.41480957 70.56077148 -135.2109375 71.37109375 C-136.0062085 72.17434082 -136.80147949 72.97758789 -137.62084961 73.80517578 C-142.37847124 78.67718884 -146.92825641 83.65024128 -151.1484375 88.99609375 C-151.59461426 89.55973633 -152.04079102 90.12337891 -152.50048828 90.70410156 C-154.61536989 93.48482647 -155.87177304 95.72096084 -156.5859375 99.12109375 C-156.07619385 99.42289551 -155.5664502 99.72469727 -155.04125977 100.03564453 C-152.73092323 101.41905116 -150.4400586 102.8319199 -148.1484375 104.24609375 C-147.34599609 104.72046875 -146.54355469 105.19484375 -145.71679688 105.68359375 C-139.85392143 109.34479867 -139.85392143 109.34479867 -138.48828125 113.30078125 C-138.5859375 116.12109375 -138.5859375 116.12109375 -139.5859375 119.12109375 C-142.75471173 120.70548087 -145.06980368 120.46239693 -148.5859375 120.12109375 C-151.41302262 118.75193522 -153.8737509 116.98006697 -156.3984375 115.12109375 C-160.62453042 111.60744713 -160.62453042 111.60744713 -165.5859375 110.12109375 C-178.12011256 132.61570186 -178.12011256 132.61570186 -185.5859375 157.12109375 C-184.96025879 157.29237793 -184.33458008 157.46366211 -183.68994141 157.64013672 C-180.86165559 158.41855918 -178.03631655 159.20718921 -175.2109375 159.99609375 C-173.73367187 160.40021484 -173.73367187 160.40021484 -172.2265625 160.8125 C-171.28554687 161.07675781 -170.34453125 161.34101563 -169.375 161.61328125 C-168.50568848 161.8541748 -167.63637695 162.09506836 -166.74072266 162.34326172 C-164.5859375 163.12109375 -164.5859375 163.12109375 -162.5859375 165.12109375 C-162.02850507 170.36095861 -162.02850507 170.36095861 -163.83203125 172.8203125 C-166.72599016 174.96661165 -169.17651332 174.09936853 -172.6015625 173.6484375 C-177.98231278 172.69765047 -183.28546271 171.44205847 -188.5859375 170.12109375 C-190.75442237 175.69315703 -191.47605576 181.28951348 -192.2109375 187.18359375 C-192.40876831 188.75270508 -192.40876831 188.75270508 -192.6105957 190.35351562 C-193.80842774 200.62993891 -193.87644009 210.79211286 -193.5859375 221.12109375 C-192.86937988 221.11062012 -192.15282227 221.10014648 -191.41455078 221.08935547 C-188.18004845 221.04788076 -184.94560197 221.02179483 -181.7109375 220.99609375 C-180.58300781 220.97933594 -179.45507812 220.96257812 -178.29296875 220.9453125 C-177.21660156 220.93886719 -176.14023438 220.93242187 -175.03125 220.92578125 C-174.03625488 220.91530762 -173.04125977 220.90483398 -172.01611328 220.89404297 C-169.5859375 221.12109375 -169.5859375 221.12109375 -167.5859375 223.12109375 C-167.390625 225.28515625 -167.390625 225.28515625 -167.4609375 227.74609375 C-167.47898437 228.56335938 -167.49703125 229.380625 -167.515625 230.22265625 C-167.53882813 230.84914063 -167.56203125 231.475625 -167.5859375 232.12109375 C-171.3359375 232.58984375 -171.3359375 232.58984375 -175.0859375 233.05859375 C-175.78203125 233.14560547 -176.478125 233.23261719 -177.1953125 233.32226562 C-180.09765625 233.68505859 -183 234.04785156 -185.90234375 234.41064453 C-186.99869141 234.54768799 -186.99869141 234.54768799 -188.1171875 234.6875 C-189.261875 234.83058594 -190.4065625 234.97367188 -191.5859375 235.12109375 C-191.23178527 252.47455288 -186.14682167 269.18107621 -179.5859375 285.12109375 C-177.50164557 284.33195432 -175.41853881 283.53968412 -173.3359375 282.74609375 C-172.17578125 282.30523437 -171.015625 281.864375 -169.8203125 281.41015625 C-166.71989007 280.24133652 -166.71989007 280.24133652 -164.421875 278.9765625 C-161.08913096 277.4236456 -158.21858878 277.828138 -154.5859375 278.12109375 C-152.5859375 281.12109375 -152.5859375 281.12109375 -152.3359375 284.49609375 C-153.77074532 288.65703642 -154.26681631 288.88252656 -158.0234375 290.74609375 C-159.87264176 291.54928348 -161.72710872 292.34043652 -163.5859375 293.12109375 C-165.46751063 294.04533062 -167.34291717 294.98226243 -169.2109375 295.93359375 C-170.66927083 296.66276042 -172.12760417 297.39192708 -173.5859375 298.12109375 C-164.07565679 318.05221397 -151.80099306 335.18151174 -136.5859375 351.12109375 C-135.78542969 351.97445313 -134.98492187 352.8278125 -134.16015625 353.70703125 C-127.52480253 360.59216097 -120.27509811 366.46960191 -112.5859375 372.12109375 C-111.73418945 372.74733643 -111.73418945 372.74733643 -110.86523438 373.38623047 C-68.956537 403.71109444 -16.37179363 415.58512118 34.59375 408.09375 C76.22763422 401.40826909 113.02871603 382.12528811 143.4140625 353.12109375 C144.26742188 352.32058594 145.12078125 351.52007812 146 350.6953125 C161.54747607 335.71186159 173.26759519 317.56372397 182.4140625 298.12109375 C181.30546875 297.56679688 180.196875 297.0125 179.0546875 296.44140625 C172.734375 293.28125 172.734375 293.28125 166.4140625 290.12109375 C165.69186523 289.82187012 164.96966797 289.52264648 164.22558594 289.21435547 C162.4140625 288.12109375 162.4140625 288.12109375 161.5390625 284.68359375 C161.4140625 281.12109375 161.4140625 281.12109375 163.4140625 278.12109375 C169.81544522 277.39745918 174.19395783 278.87756207 179.9140625 281.62109375 C180.64109375 281.95496094 181.368125 282.28882813 182.1171875 282.6328125 C183.88906063 283.4488067 185.65250167 284.28306967 187.4140625 285.12109375 C190.72867259 281.42289377 191.91631006 277.27316115 193.3515625 272.62109375 C193.60953613 271.79319336 193.86750977 270.96529297 194.13330078 270.11230469 C195.99982158 263.92618784 197.50626241 257.70281031 198.7890625 251.37109375 C198.95656006 250.55060547 199.12405762 249.73011719 199.29663086 248.88476562 C200.18927212 244.2124592 200.57935606 239.87646242 200.4140625 235.12109375 C199.82915039 235.06574463 199.24423828 235.01039551 198.64160156 234.95336914 C195.98211142 234.6999211 193.32309418 234.4418055 190.6640625 234.18359375 C189.74367188 234.09658203 188.82328125 234.00957031 187.875 233.91992188 C186.54082031 233.7894043 186.54082031 233.7894043 185.1796875 233.65625 C183.95427246 233.53842163 183.95427246 233.53842163 182.70410156 233.41821289 C180.54285349 233.13780363 178.51388937 232.6966487 176.4140625 232.12109375 C176.36006514 230.66316491 176.32127073 229.20466663 176.2890625 227.74609375 C176.26585937 226.93398438 176.24265625 226.121875 176.21875 225.28515625 C176.4140625 223.12109375 176.4140625 223.12109375 178.4140625 221.12109375 C180.84423828 220.89404297 180.84423828 220.89404297 183.859375 220.92578125 C185.47392578 220.93544922 185.47392578 220.93544922 187.12109375 220.9453125 C188.24902344 220.96207031 189.37695312 220.97882813 190.5390625 220.99609375 C191.67472656 221.00511719 192.81039063 221.01414062 193.98046875 221.0234375 C196.79187549 221.04706277 199.60286548 221.08000362 202.4140625 221.12109375 C202.73550626 209.69198226 202.47080434 198.53957177 201.0390625 187.18359375 C200.91297607 186.17232422 200.78688965 185.16105469 200.65698242 184.11914062 C199.99930053 179.24499163 199.20900375 174.73331235 197.4140625 170.12109375 C195.67769531 170.55421875 195.67769531 170.55421875 193.90625 170.99609375 C192.36727519 171.37145346 190.82820772 171.7464334 189.2890625 172.12109375 C188.52851563 172.311875 187.76796875 172.50265625 186.984375 172.69921875 C176.33036629 175.27087602 176.33036629 175.27087602 172.5390625 172.99609375 C170.86742625 170.21003333 170.95029626 168.30120513 171.4140625 165.12109375 C174.07085796 162.68123271 176.49150727 161.60173256 179.9609375 160.734375 C180.80527344 160.51845703 181.64960938 160.30253906 182.51953125 160.08007812 C183.39222656 159.86673828 184.26492188 159.65339844 185.1640625 159.43359375 C186.05222656 159.20865234 186.94039063 158.98371094 187.85546875 158.75195312 C190.03972564 158.20001724 192.22576098 157.65672537 194.4140625 157.12109375 C192.57933703 149.74699331 190.27607295 142.82830481 187.2265625 135.87109375 C186.83799072 134.97302002 186.44941895 134.07494629 186.04907227 133.1496582 C182.57635921 125.24549038 178.65198206 117.63849329 174.4140625 110.12109375 C169.11010612 111.96679285 165.04102491 115.14413177 160.546875 118.44140625 C156.8595322 120.41841049 154.54087536 120.50891472 150.4140625 120.12109375 C149.7540625 119.79109375 149.0940625 119.46109375 148.4140625 119.12109375 C147.56349305 115.56416698 147.24496443 113.62838797 148.4140625 110.12109375 C150.08813477 108.77075195 150.08813477 108.77075195 152.23046875 107.421875 C152.99423828 106.93525391 153.75800781 106.44863281 154.54492188 105.94726562 C155.74858398 105.19799805 155.74858398 105.19799805 156.9765625 104.43359375 C157.78287109 103.92248047 158.58917969 103.41136719 159.41992188 102.88476562 C161.41336599 101.6226442 163.41140335 100.36852218 165.4140625 99.12109375 C160.97642583 86.17992295 144.12133504 68.31643569 132.4140625 61.12109375 C128.3601154 62.47240945 126.78842889 65.24204342 124.3515625 68.55859375 C119.5798464 74.95530985 119.5798464 74.95530985 117.4140625 77.12109375 C113.9140625 77.37109375 113.9140625 77.37109375 110.4140625 77.12109375 C108.4140625 75.12109375 108.4140625 75.12109375 107.94140625 71.98046875 C108.56945886 66.85223754 110.76258312 64.27797733 113.9765625 60.37109375 C115.02855366 59.07105147 116.07201179 57.7640427 117.10546875 56.44921875 C117.80458374 55.5969873 117.80458374 55.5969873 118.51782227 54.72753906 C118.81358154 54.19741211 119.10934082 53.66728516 119.4140625 53.12109375 C118.11863659 49.23481601 115.85891661 48.12864731 112.5390625 46.05859375 C111.9298999 45.67300293 111.3207373 45.28741211 110.69311523 44.89013672 C93.56483356 33.42199219 93.56483356 33.42199219 74.4140625 28.12109375 C74.21248535 28.72171631 74.0109082 29.32233887 73.80322266 29.94116211 C72.88946955 32.6496187 71.96443385 35.35408581 71.0390625 38.05859375 C70.72195313 39.00412109 70.40484375 39.94964844 70.078125 40.92382812 C69.76875 41.82294922 69.459375 42.72207031 69.140625 43.6484375 C68.71644287 44.89741821 68.71644287 44.89741821 68.28369141 46.17163086 C67.4140625 48.12109375 67.4140625 48.12109375 65.4140625 49.12109375 C61.9140625 49.37109375 61.9140625 49.37109375 58.4140625 49.12109375 C56.04733514 45.57100271 56.05269837 44.30689488 56.4140625 40.12109375 C57.16328392 37.71823364 58.00204558 35.34200393 58.9140625 32.99609375 C60.46688621 28.98463249 61.4140625 26.44997892 61.4140625 22.12109375 C45.20780758 17.85007032 28.27673103 13.88960846 11.4140625 14.12109375 C11.40004395 15.08934082 11.40004395 15.08934082 11.38574219 16.07714844 C11.33197149 19.00923319 11.2483391 21.93973383 11.1640625 24.87109375 C11.14988281 25.886875 11.13570312 26.90265625 11.12109375 27.94921875 C10.87442212 35.44803633 10.87442212 35.44803633 8.5625 38.828125 C6.4140625 40.12109375 6.4140625 40.12109375 3.2890625 40.05859375 C0.4140625 39.12109375 0.4140625 39.12109375 -1.5859375 36.12109375 C-1.90478516 33.76098633 -1.90478516 33.76098633 -2 31.015625 C-2.03867188 30.03271484 -2.07734375 29.04980469 -2.1171875 28.03710938 C-2.16359375 26.50086914 -2.16359375 26.50086914 -2.2109375 24.93359375 C-2.24960938 23.89783203 -2.28828125 22.86207031 -2.328125 21.79492188 C-2.42242046 19.23715753 -2.50801952 16.67940088 -2.5859375 14.12109375 C-19.44860603 13.88960846 -36.37968258 17.85007032 -52.5859375 22.12109375 Z " fill="#000000" transform="translate(251.5859375,43.87890625)"/>
<path d="M0 0 C0.75196907 -0.00467997 1.50393814 -0.00935994 2.27869415 -0.01418173 C4.79990749 -0.02615345 7.32057945 -0.01666621 9.84179688 -0.00723267 C11.64868487 -0.01129741 13.45557038 -0.01663874 15.26245117 -0.02316284 C20.17147908 -0.03685385 25.0803181 -0.03153042 29.98934937 -0.02202559 C35.12311315 -0.01443825 40.25686059 -0.02147202 45.390625 -0.02618408 C54.01239938 -0.03164433 62.63409669 -0.02444295 71.25585938 -0.01016235 C81.22838771 0.00616466 91.20073205 0.00087634 101.17325592 -0.01564157 C109.73045681 -0.02924875 118.28760227 -0.03117985 126.84481049 -0.02332556 C131.95785031 -0.01864483 137.0708036 -0.01803521 142.18383789 -0.02793503 C146.99045438 -0.03659123 151.79683329 -0.03060742 156.60342407 -0.01325226 C158.36910609 -0.00928021 160.13480805 -0.0104337 161.90048218 -0.01704025 C164.30762404 -0.02521761 166.71400086 -0.01498084 169.12109375 0 C169.82264839 -0.00669217 170.52420303 -0.01338433 171.24701691 -0.02027929 C174.28784615 0.01652082 176.3199969 0.24606207 178.99460793 1.74585533 C181.25804135 4.10924889 181.05546906 5.76469735 181.04638672 8.99813843 C181.05561661 10.72507935 181.05561661 10.72507935 181.06503296 12.48690796 C181.04347641 14.35258423 181.04347641 14.35258423 181.02148438 16.25595093 C181.02056793 17.53196167 181.01965149 18.80797241 181.01870728 20.12265015 C181.01265931 22.82322277 180.99902489 25.52243351 180.97216797 28.2227478 C180.93818761 31.68304748 180.93053942 35.14276347 180.93205833 38.60321045 C180.93138354 41.90418165 180.91370489 45.20503054 180.89648438 48.50595093 C180.89425873 49.74973511 180.89203308 50.99351929 180.88973999 52.2749939 C180.87698029 53.42628784 180.86422058 54.57758179 180.85107422 55.76376343 C180.84345062 56.77841675 180.83582703 57.79307007 180.82797241 58.83847046 C180.56054688 61.38095093 180.56054688 61.38095093 178.56054688 64.38095093 C175.07078069 65.54420632 171.9467269 65.52273129 168.317276 65.5146637 C167.57432846 65.51692925 166.83138092 65.51919481 166.06591982 65.52152902 C163.56940287 65.52787343 161.07294015 65.52703937 158.57641602 65.5262146 C156.78938222 65.52920579 155.00234907 65.53260823 153.21531677 65.53639221 C148.35587324 65.54523993 143.49644731 65.54757064 138.63699651 65.548208 C134.58365073 65.5491565 130.53030908 65.55283409 126.47696489 65.55638009 C116.91636315 65.56452741 107.35577083 65.56696406 97.79516602 65.56625366 C87.92437722 65.56565262 78.05364303 65.57620903 68.18286806 65.59199733 C59.71487198 65.60506051 51.24689377 65.61043808 42.77888769 65.60979825 C37.71838204 65.60954293 32.65792491 65.61241317 27.59742928 65.6229763 C22.83930897 65.63263688 18.08128378 65.63275053 13.32316017 65.62545967 C11.57521171 65.62441132 9.82725738 65.62679151 8.079319 65.63282013 C5.69636694 65.64050767 3.31374603 65.6359169 0.93080139 65.62818909 C0.23634653 65.63333265 -0.45810834 65.63847621 -1.17360729 65.64377564 C-4.74273751 65.61813292 -7.45927262 65.44521 -10.43945312 63.38095093 C-11.74710148 60.76565423 -11.58810146 58.80612361 -11.61645508 55.87728882 C-11.62929031 54.72591934 -11.64212555 53.57454987 -11.65534973 52.38829041 C-11.66273666 51.13934494 -11.6701236 49.89039948 -11.67773438 48.60360718 C-11.68580612 47.32618149 -11.69387787 46.0487558 -11.70219421 44.73262024 C-11.71604341 42.02657433 -11.72705806 39.32065062 -11.73461914 36.61459351 C-11.74569808 33.14627507 -11.78011625 29.6785957 -11.81979084 26.21050358 C-11.85219146 22.90410119 -11.85672966 19.59764414 -11.86523438 16.29110718 C-11.88274246 15.04418594 -11.90025055 13.79726471 -11.91828918 12.51255798 C-11.91536362 11.35803635 -11.91243805 10.20351471 -11.90942383 9.01400757 C-11.91529007 7.99633804 -11.92115631 6.97866852 -11.92720032 5.93016052 C-11.43945312 3.38095093 -11.43945312 3.38095093 -9.87393475 1.74543476 C-6.59690685 -0.09128134 -3.65726109 -0.0348868 0 0 Z M1.56054688 14.38095093 C1.56054688 26.59095093 1.56054688 38.80095093 1.56054688 51.38095093 C56.34054688 51.38095093 111.12054688 51.38095093 167.56054688 51.38095093 C167.56054688 39.17095093 167.56054688 26.96095093 167.56054688 14.38095093 C112.78054688 14.38095093 58.00054687 14.38095093 1.56054688 14.38095093 Z " fill="#000000" transform="translate(171.439453125,322.6190490722656)"/>
<path d="M0 0 C2.15338135 1.41766357 2.15338135 1.41766357 4 4 C4.61066614 7.26676863 4.56365318 10.50177755 4.54589844 13.81738281 C4.55623611 14.81283112 4.56657379 15.80827942 4.57722473 16.83389282 C4.60671963 20.1238007 4.60815335 23.41309513 4.609375 26.703125 C4.62435208 28.98428526 4.64107822 31.26543466 4.65948486 33.54656982 C4.70322329 39.55037933 4.72317199 45.55404256 4.73822021 51.5579834 C4.75776779 57.68457716 4.79974046 63.8110124 4.83984375 69.9375 C4.91521632 81.95828451 4.96546522 93.97903367 5 106 C5.74475586 106.2568457 6.48951172 106.51369141 7.25683594 106.77832031 C8.73071777 107.29797363 8.73071777 107.29797363 10.234375 107.828125 C11.20600586 108.1674707 12.17763672 108.50681641 13.17871094 108.85644531 C22.08373402 112.46592334 29.41460272 120.07416567 33.375 128.75 C37.21699209 138.03759828 37.60534238 149.44301196 34.375 159 C29.79813702 169.69001564 21.82665177 177.82710448 11.078125 182.2734375 C1.44730949 185.64060232 -10.24994832 185.26499219 -19.609375 181.2578125 C-30.51715923 175.51874955 -37.78813687 166.89426293 -41.58203125 155.20703125 C-43.64648983 144.30591819 -42.39948453 133.3411517 -36.6796875 123.796875 C-30.21374693 114.53962675 -21.95294853 108.66245303 -11 106 C-10.99635437 104.73101868 -10.99270874 103.46203735 -10.98895264 102.15460205 C-10.95204039 90.20618388 -10.89430895 78.25802434 -10.81609726 66.30980301 C-10.77655768 60.16681079 -10.74440092 54.02396331 -10.72900391 47.88085938 C-10.71388015 41.95440597 -10.67951053 36.02835032 -10.63169098 30.10207367 C-10.61683299 27.83905236 -10.60895647 25.57597428 -10.60811615 23.31290436 C-10.60575808 20.1472971 -10.57877112 16.98279952 -10.54589844 13.81738281 C-10.5509288 12.87798859 -10.55595917 11.93859436 -10.56114197 10.97073364 C-10.45920382 4.64215682 -10.45920382 4.64215682 -8.15338135 1.41766357 C-5.19480719 -0.53009307 -3.47349649 -0.57891608 0 0 Z M-22.4375 128.375 C-27.83913064 135.5210666 -28.98726702 142.20643558 -28 151 C-26.20407371 158.63867315 -21.30184002 163.56852059 -15 168 C-8.58685256 171.25966269 -0.48848078 171.0839281 6.41015625 169.41796875 C13.04805071 166.52791132 18.15033609 160.46811983 21.5 154.1875 C22.9870935 144.70727896 22.67686344 137.02196572 17 129 C12.45548716 123.89416966 7.12178273 120.52543972 0.2421875 119.6484375 C-8.8645923 119.20590856 -16.18110323 121.56521187 -22.4375 128.375 Z " fill="#000000" transform="translate(259,122)"/>
</svg>
